<svg xmlns="http://www.w3.org/2000/svg" width="410" height="404" viewBox="0 0 410 404"><defs><linearGradient id="a" x1="50%" x2="50%" y1="0%" y2="100%"><stop stop-color="#5BC0BE" offset="0%"/><stop stop-color="#1C2541" offset="100%"/></linearGradient></defs><path fill="url(#a)" d="M399.641 59.525c-1.843-6.905-7.285-12.347-14.19-14.19C356.155 36.942 280.21 16 205 16S53.845 36.942 24.549 45.335c-6.905 1.843-12.347 7.285-14.19 14.19C1.966 88.82 0 117.773 0 147.027c0 29.255 1.966 58.206 10.36 87.502 1.843 6.905 7.285 12.347 14.19 14.19C53.845 257.111 129.79 278.053 205 278.053s151.155-20.942 180.451-29.334c6.905-1.843 12.347-7.285 14.19-14.19 8.394-29.296 10.36-58.247 10.36-87.502 0-29.254-1.966-58.206-10.36-87.502z"/><ellipse cx="205" cy="149" fill="#0B132B" rx="140" ry="100"/></svg>